<svg width="24" height="12" viewBox="0 0 24 12" fill="none" xmlns="http://www.w3.org/2000/svg">
<path d="M23.707 5.29103L18.929 0.513031C18.643 0.227123 18.213 0.141609 17.8393 0.296353C17.4657 0.451096 17.2221 0.815635 17.222 1.22003V4.24803C17.222 4.3861 17.1101 4.49803 16.972 4.49803H1.5C0.671573 4.49803 0 5.1696 0 5.99803C0 6.82646 0.671573 7.49803 1.5 7.49803H16.972C17.1101 7.49803 17.222 7.60996 17.222 7.74803V10.776C17.2221 11.1804 17.4657 11.545 17.8393 11.6997C18.213 11.8545 18.643 11.7689 18.929 11.483L23.707 6.70503C24.0974 6.31453 24.0974 5.68153 23.707 5.29103Z" fill="#FFAC12"/>
</svg>
